<svg version="1.2" xmlns="http://www.w3.org/2000/svg" viewBox="0 0 1563 1563" width="1563" height="1563">
	<style>
		.s0 { fill: #856042 } 
	</style>
	<path id="Path 0" fill-rule="evenodd" class="s0" d="m686.25 518.07c4.26-0.04 11.24 0.65 15.5 1.53 4.26 0.89 11.58 2.94 16.25 4.58 4.67 1.63 14.58 5.99 22 9.69 7.42 3.7 20.48 11.2 29 16.67 8.52 5.47 22.48 15.07 31 21.34 8.52 6.28 22.02 16.6 30 22.94 7.98 6.34 22.15 17.87 31.5 25.63 9.35 7.76 23.86 19.61 47.5 38.55l7.75-4.35c4.26-2.4 12.92-6.7 19.25-9.57 6.33-2.86 12.29-5.63 13.25-6.14 0.96-0.52 2.2-0.94 2.75-0.94 0.55 0 1 2.47 1 5.5 0 3.7-0.41 5.52-1.25 5.57-0.69 0.03-2.83 0.27-4.75 0.53-1.92 0.26-7.33 1.76-12 3.35-4.67 1.58-11.54 4.26-22 9.05l6.75 5.1c3.71 2.81 11.02 7.93 16.25 11.38 5.23 3.46 15.13 9.49 22 13.42 6.88 3.92 21.39 11.63 52 27.1l9.25-1.52c5.09-0.84 11.5-2.25 14.25-3.13 2.75-0.88 7.92-3.12 11.5-4.98 3.79-1.97 16.1-11.34 29.5-22.44 12.65-10.48 26.83-21.69 31.5-24.9 4.67-3.22 11.88-7.47 16-9.46 5.45-2.62 9.42-3.77 14.5-4.23 4.7-0.42 8.31-0.19 11 0.7 2.2 0.73 5.76 2.94 7.9 4.9 2.15 1.96 6.7 7.38 10.12 12.06 3.41 4.67 7.39 9.29 8.84 10.25 1.45 0.96 9.95 4.01 18.89 6.78 8.94 2.77 22.55 7.33 30.25 10.14 7.7 2.81 21.88 8.45 31.5 12.54 9.63 4.08 27.28 12.23 60.97 28.79l16.76-16.56c9.23-9.1 20.14-19.09 24.27-22.19 4.13-3.09 11.33-7.92 16-10.73 4.67-2.8 11.99-6.43 16.25-8.06 4.26-1.63 8.31-2.97 9-2.98 0.75-0.01 1.93 3.1 2.96 7.75 1.09 4.96 2.9 9.58 5 12.76 3.02 4.59 4.47 5.59 17.79 12.3 7.97 4.02 16.36 8.74 18.63 10.51 2.27 1.76 5.93 5.22 8.12 7.7 2.2 2.47 5.72 7.65 7.83 11.5 2.11 3.85 4.76 10.11 7.92 20.81l10-8.85c5.5-4.87 15.17-12.95 21.5-17.96 6.33-5.01 13.21-10.43 19.1-15l4.2 4.09c2.31 2.25 8.03 7.24 12.7 11.09 4.67 3.84 13.11 10.44 29 22.32v13l-3.75-2.89c-2.06-1.59-12.64-11.49-43.25-41.11l-9.25 8.85c-5.09 4.86-15.21 15.44-22.5 23.5-7.29 8.06-13.25 15.1-13.25 15.65 0 0.55 1.07 3.14 2.37 5.75 1.31 2.61 4.71 7.67 7.56 11.25 2.85 3.57 7.97 8.94 11.38 11.91 3.4 2.98 10.69 8.9 16.19 13.15 5.5 4.26 13.23 10.6 17.19 14.09 3.95 3.49 9.52 9.27 12.37 12.85 2.86 3.57 6.21 8.52 7.45 11 1.25 2.47 3 6.97 3.89 10 0.89 3.02 1.62 5.61 1.61 5.75-0.01 0.14-0.68 0.25-1.51 0.25-0.83 0-1.5-0.56-1.5-1.25 0-0.69-1.29-3.95-2.86-7.25-1.57-3.3-4.9-8.7-7.38-12-2.49-3.3-7.84-8.74-11.89-12.08-4.05-3.35-14.12-10.77-22.37-16.5-9.58-6.66-18.45-13.85-24.57-19.92-7.53-7.47-10.44-11.21-13.64-17.5-2.24-4.4-5.75-12.73-7.81-18.5-2.05-5.78-5.32-13.65-7.25-17.5-2.16-4.31-5.68-9.11-9.15-12.5-3.1-3.03-8.55-6.93-12.11-8.68-3.56-1.74-10.3-4.91-14.97-7.04-4.95-2.25-10.52-5.73-13.34-8.32-2.99-2.76-5.94-6.84-10.66-16.96l-4.25 2.14c-2.34 1.18-6.95 3.98-10.25 6.22-3.3 2.25-9.15 6.79-13 10.11-3.85 3.32-17.13 15.93-29.52 28.03-12.39 12.1-25.44 24.51-29 27.58-3.56 3.07-9.4 7.62-12.98 10.11-3.58 2.49-10.55 6.9-15.5 9.79-4.95 2.9-20.59 11.06-34.75 18.15-14.16 7.08-29.91 15.18-35 18.01-5.09 2.83-12.39 7.22-16.23 9.75-3.83 2.54-12.1 9.33-18.38 15.11-6.27 5.77-15.73 14.33-21.02 19.02-5.29 4.68-14.12 11.9-19.62 16.04-5.5 4.13-14.28 10.26-19.5 13.61-5.22 3.35-14.45 8.74-20.5 11.98-6.05 3.24-16.17 8.22-22.5 11.06-6.33 2.84-16 6.94-21.5 9.1-5.5 2.17-15.62 5.76-22.5 7.98-6.87 2.22-17.23 5.41-23 7.08-5.77 1.67-16.13 4.38-23 6.01-6.87 1.64-21.95 4.79-33.5 7.02-11.55 2.23-27.08 4.95-34.5 6.05-7.42 1.1-20.92 2.88-30 3.96-9.08 1.08-23.92 2.66-33 3.5-9.08 0.84-23.25 1.98-31.5 2.54-8.25 0.55-27.15 1.5-42 2.12-20.17 0.84-30.8 0.83-42-0.02-8.25-0.63-17.92-1.76-21.5-2.51-3.58-0.74-8.98-2.27-12-3.39-3.35-1.24-7.94-4.2-11.75-7.59-3.44-3.06-7.15-6.01-8.25-6.56-1.1-0.55-5.04-1.48-8.75-2.06-5.23-0.82-10.02-0.7-21.25 0.51-7.98 0.86-21.92 2.88-31 4.48-9.08 1.6-27.52 4.95-41 7.44-13.48 2.49-30.58 5.46-38 6.59-7.42 1.13-20.92 2.97-30 4.08-9.07 1.11-25.5 2.3-36.5 2.65-18.79 0.59-19.91 0.53-18.5-1.07 1.01-1.15 2.97-1.69 6-1.66 2.48 0.02 9.9-0.66 16.5-1.51 6.6-0.86 17.63-2.46 24.5-3.55 6.88-1.1 20.38-3.54 30-5.42 9.63-1.88 24.92-5.03 34-7.01 9.08-1.97 23.7-5.13 32.5-7.02 8.8-1.89 23.88-4.85 33.5-6.59 13.12-2.36 20.63-3.17 30-3.23 9.03-0.07 14.03 0.38 18 1.58 3.02 0.92 7.3 3.05 9.5 4.73 2.2 1.68 5.8 4.43 8 6.1 2.2 1.68 6.48 3.96 9.5 5.07 3.02 1.12 10 2.68 15.5 3.47 5.97 0.86 22.69 1.69 41.5 2.05 17.41 0.34 44.92 0.11 61.5-0.5 16.5-0.6 39-1.8 50-2.66 11-0.86 29.45-2.91 41-4.55 11.55-1.65 28.88-4.59 38.5-6.55 9.63-1.95 23.35-5.04 30.5-6.86 7.15-1.82 20.2-5.66 29-8.53 8.8-2.88 20.5-7.01 26-9.19 5.5-2.18 14.95-6.31 21-9.18 6.05-2.87 15.5-7.85 21-11.08 5.5-3.22 14.72-9.02 20.5-12.9 5.78-3.87 15.9-11.39 22.5-16.71 6.6-5.33 20.55-17.87 31-27.88 10.45-10.01 21.77-20.3 31.3-27.54l-12.65-7.31c-6.96-4.02-23.9-12.86-37.65-19.65-13.75-6.78-36.92-17.73-51.5-24.33-14.58-6.6-34.15-15.37-43.5-19.49-9.35-4.12-24.42-10.97-33.5-15.23-9.08-4.25-22.58-10.77-30-14.48-7.42-3.72-21.15-11.14-30.5-16.49-9.35-5.35-21.73-13.03-27.5-17.07-5.77-4.04-17.92-13.3-27-20.57-9.08-7.27-25.5-20.7-36.5-29.84-11-9.15-26.08-21.58-33.5-27.63-7.42-6.05-19.58-15.67-27-21.38-7.42-5.72-19.8-14.75-27.5-20.08-7.7-5.34-18.73-12.54-24.5-16.01-5.77-3.47-15.23-8.43-21-11.02-5.77-2.59-13.65-5.66-17.5-6.82-3.85-1.17-10.15-2.52-14-3-4.05-0.52-9.11-0.52-12-0.01-2.75 0.48-9.5 3.1-15 5.82-5.5 2.72-15.4 8.78-22 13.48-6.6 4.69-18.11 13.61-25.58 19.82-7.47 6.21-25.25 21.49-39.5 33.97-14.26 12.47-30.19 26.12-35.42 30.32-5.23 4.21-12.88 9.88-17 12.61-5.07 3.35-10.9 6.04-18 8.33-5.77 1.85-18.38 4.81-28 6.56-9.63 1.75-20.2 3.84-23.5 4.64-3.3 0.81-8.93 2.55-12.5 3.88-3.57 1.33-10.77 4.97-16 8.09-5.23 3.12-13.1 8.38-17.5 11.69-4.4 3.31-11.82 9.2-16.5 13.1-4.68 3.89-14.56 12.48-21.96 19.09-7.4 6.61-17.53 15.64-22.5 20.07-4.97 4.43-14.89 12.98-22.04 19-7.15 6.02-16.83 13.7-21.5 17.08-4.68 3.37-12.77 8.73-18 11.92-5.23 3.18-12.88 7.33-17 9.22-4.13 1.89-11.77 4.53-17 5.88-9.02 2.33-10.77 2.44-34.5 2.2-24.82-0.26-25.06-0.24-34 2.51-4.95 1.52-13.72 5.13-19.5 8.03-5.78 2.89-15.22 8.38-20.98 12.18-5.77 3.81-16.8 11.66-24.5 17.45-7.71 5.8-22.56 17.5-32.99 26-10.43 8.51-25.57 20.42-33.63 26.47-8.07 6.05-18.99 13.59-24.28 16.75-5.29 3.16-10.74 5.97-12.12 6.25-1.75 0.35-2.34 0.12-1.98-0.75 0.29-0.69 2.66-2.42 5.25-3.85 2.6-1.43 10.13-6.66 16.73-11.62 6.6-4.96 23.7-19.27 38-31.8 14.3-12.53 32.53-28.01 40.5-34.41 7.97-6.39 18.78-14.6 24-18.24 5.22-3.65 14.22-9.27 20-12.49 5.78-3.23 15-7.41 30.5-12.74l28.5-0.63c28.01-0.62 28.63-0.67 36-3.42 4.13-1.54 11.1-4.6 15.5-6.8 4.4-2.2 11.15-5.99 22-12.86l-3.5-2.5c-1.93-1.38-7.32-4.68-12-7.32-4.68-2.65-15.93-8.28-25-12.52-9.07-4.23-23.16-11.37-31.29-15.87-8.14-4.5-19.61-11.78-25.5-16.18-5.89-4.4-15.16-12.27-20.59-17.5-5.44-5.22-13.49-14-17.91-19.5-4.41-5.5-10.72-14.05-14.01-19-3.3-4.95-6.04-9.14-6.1-9.3-0.05-0.17-3.25 0.9-7.1 2.38-3.85 1.48-16 7.18-27 12.68-11 5.5-36.2 18.65-56 29.22-19.8 10.58-37.91 20.19-44.5 23.52l-0.04-6.75c-0.04-6.71-0.02-6.77 3.75-9.35 2.08-1.44 12.12-7.23 22.29-12.87 10.18-5.64 25.7-14 34.5-18.57 8.8-4.57 22.75-11.32 31-15 8.25-3.68 19.5-8.18 25-10 5.5-1.83 12.03-3.61 14.5-3.96 2.51-0.36 5.71-0.17 7.25 0.43 2.07 0.81 3.99 3.47 7.79 10.82 2.77 5.36 7.93 13.8 11.47 18.75 3.54 4.95 9.7 12.77 13.71 17.37 4 4.61 10.66 11.17 14.78 14.58 4.13 3.41 9.53 7.58 12 9.27 2.47 1.68 9.45 5.57 15.5 8.63 6.05 3.06 21.35 9.68 34 14.72 12.65 5.03 26.6 10.95 31 13.16 4.4 2.2 10.81 5.98 14.25 8.39 3.44 2.41 6.7 4.38 7.25 4.38 0.55 0 4.49-2.63 8.75-5.85 4.26-3.22 13.88-10.99 21.37-17.25 7.49-6.27 20.09-16.83 28-23.47 7.91-6.64 20.01-16.37 26.88-21.62 6.88-5.24 17.45-12.8 23.5-16.78 6.05-3.99 14.15-8.83 18-10.76 3.85-1.94 10.82-4.76 15.5-6.28 4.68-1.52 14.8-3.74 22.5-4.95 7.7-1.2 18.73-3.1 24.5-4.22 5.77-1.12 13.88-3.23 18.01-4.68 4.13-1.45 10.14-4.22 13.34-6.14 3.21-1.93 10.4-7.14 15.99-11.59 5.59-4.45 15.83-13.22 22.75-19.5 6.93-6.28 21.56-19.59 32.5-29.58 10.95-9.99 25.31-22.6 31.91-28.01 6.6-5.42 16.05-12.73 21-16.26 4.95-3.52 12.15-8.11 16-10.19 3.85-2.08 9.48-4.44 12.5-5.26 3.02-0.81 8.99-1.51 13.25-1.54zm431.25 146.81c-4.4 2.35-12.28 7.15-17.5 10.66-5.22 3.51-14.67 10.46-21 15.44-6.33 4.97-14.88 11.61-19 14.74-4.12 3.13-10.42 7.01-14 8.61-3.58 1.61-11.45 4.18-17.5 5.71l-11 2.79c17.83 8.46 37.17 17.75 54.5 26.11 17.33 8.37 39.38 19.29 49 24.29 9.63 4.99 24.92 13.34 34 18.56 9.08 5.22 20.89 12.35 26.25 15.85l9.75 6.36c12.79-7.23 27.97-15.25 42-22.49 14.03-7.24 29.78-15.77 35-18.97 5.22-3.19 12.65-8.14 16.5-11.01 3.85-2.86 10.05-7.87 13.77-11.12 3.72-3.25 6.78-6.14 6.79-6.41 0.01-0.28-2.59-1.7-5.77-3.16-3.19-1.47-15.91-7.23-28.29-12.81-12.38-5.58-31.95-13.9-43.5-18.5-11.55-4.6-29.1-11.11-39-14.47-11.52-3.91-19.26-7.13-21.5-8.93-1.92-1.54-6.65-7.47-10.5-13.18-3.93-5.82-8.53-11.38-10.5-12.69-2.45-1.62-4.85-2.29-8-2.22-2.47 0.05-6.3 0.65-8.5 1.33-2.2 0.68-7.6 3.16-12 5.51zm-91.91-134.53c0.14 0.29-0.85 5.61-2.21 11.84-1.35 6.22-2.22 11.53-1.93 11.81 0.3 0.27-0.02 1.08-0.71 1.79-0.68 0.72-2.03 1.28-2.99 1.25-1.5-0.03-1.7-0.86-1.4-5.79 0.2-3.16 1.41-8.45 2.7-11.75 1.29-3.3 3.23-6.83 4.31-7.83 1.09-1.01 2.09-1.6 2.23-1.32zm-41 0.65c1.28 0 1.82 1.57 2.51 7.25 0.55 4.56 1.62 8.27 2.88 10 1.11 1.51 2.05 3.54 2.09 4.5 0.04 0.96-0.12 2.65-0.35 3.75-0.24 1.15-1.23 2-2.32 2-1.04 0-2.46 0.34-3.15 0.75-0.69 0.41-1.81 0.59-2.5 0.4-0.69-0.19-1.81-2.44-2.5-5-0.69-2.56-1.25-7.35-1.25-10.65 0-3.3 0.34-6.17 0.75-6.38 0.41-0.21 1.08-1.78 1.48-3.5 0.45-1.92 1.35-3.12 2.36-3.12zm-41.67 3.01c0.32 0 1.7 1.67 3.08 3.71 1.37 2.04 5.33 6.88 8.79 10.75 3.45 3.86 8.18 8.47 10.5 10.22 3.4 2.57 4.26 3.88 4.46 6.75 0.17 2.44-0.22 3.72-1.25 4.06-0.83 0.27-2.29 0.1-3.25-0.38-0.96-0.48-5.13-4.46-9.25-8.83-4.13-4.37-8.01-9.03-8.63-10.37-0.61-1.33-2.3-5.23-3.75-8.67-1.44-3.44-2.32-6.48-1.95-6.75 0.36-0.28 0.93-0.5 1.25-0.49zm117.83 9.99c0.69 0 1.47 0.45 1.75 1 0.28 0.55-1.64 4.22-4.25 8.16-2.61 3.93-5.39 8.32-6.16 9.75-0.78 1.42-2.13 3.08-3 3.69-0.88 0.6-2.26 2.56-3.09 4.34-0.83 1.79-2.51 3.88-3.75 4.65-1.24 0.78-2.48 1.3-2.76 1.16-0.28-0.14-0.64-2.02-0.81-4.19-0.24-2.95 0.36-4.96 2.36-8 1.48-2.23 6.23-7.77 10.57-12.31 4.34-4.54 8.45-8.26 9.14-8.25zm-67.5 19.04c1.51-0.02 3.95 0.75 5.43 1.71 1.97 1.29 2.76 1.42 3 0.5 0.24-0.94 2.39-1.1 8.57-0.63 4.96 0.37 10.64 1.55 14.25 2.96 3.3 1.29 8.03 4.09 10.5 6.22 2.47 2.13 5.95 6.08 7.71 8.78 1.77 2.71 3.57 6.39 4 8.19 0.49 2.05 0.41 3.27-0.21 3.25-0.55-0.01-2.2-1.94-3.67-4.27-1.47-2.34-4.28-5.94-6.25-8-1.97-2.06-5.94-4.92-8.83-6.34-3.28-1.62-6.1-2.37-7.5-2-1.41 0.37-2.71 0.02-3.5-0.95-0.69-0.85-2.15-1.52-3.25-1.49-1.1 0.04-2.51-0.45-3.13-1.08-0.74-0.75-4.25-1.01-10.18-0.77-8.2 0.34-9.31 0.63-11.87 3.08-1.61 1.54-4.65 3.04-7.09 3.5-2.35 0.44-4.25 1.02-4.23 1.3 0.02 0.27-2.71 2.3-6.08 4.5-3.37 2.2-7.09 5.35-8.26 7-1.17 1.65-3.63 6.15-5.47 10-1.84 3.85-3.57 9.02-3.85 11.5-0.28 2.47 0.14 6.97 0.93 10 0.79 3.02 2.17 6.62 3.07 8 0.89 1.37 3.1 3.92 4.89 5.65 1.8 1.73 5.52 4.67 8.27 6.54 2.75 1.86 7.7 4.66 11 6.22 3.3 1.55 8.25 3.19 11 3.65 3.5 0.57 6.95 0.37 11.5-0.68 3.58-0.82 9.19-2.93 12.47-4.69 3.29-1.75 8.26-5.44 11.05-8.19 3.61-3.55 5.61-6.59 6.93-10.5 1.08-3.21 1.83-8.21 1.81-12-0.03-3.72-0.76-8.21-1.72-10.5-0.92-2.2-3.22-5.91-5.11-8.25-1.97-2.44-5.67-5.33-8.68-6.79-4.28-2.07-6.73-2.55-13.25-2.55-5.63 0-9.33 0.56-12.5 1.9-2.48 1.05-6.02 3.2-7.89 4.8-1.86 1.59-4.43 4.69-5.71 6.89-1.29 2.2-2.63 6.02-3 8.5-0.5 3.47-0.17 5.59 1.47 9.25 1.17 2.61 3.82 6.33 5.88 8.25 2.06 1.93 5.77 4.25 8.25 5.16 3.7 1.36 5.12 1.44 8 0.48 1.92-0.64 4.44-1.95 5.59-2.9 1.14-0.96 3.97-4.44 6.27-7.74 2.3-3.3 4.18-7.01 4.16-8.25-0.01-1.24-1.26-3.62-2.77-5.29-1.51-1.67-4.55-3.66-6.75-4.41-2.2-0.75-4-1.97-4-2.71 0-0.85 1.47-1.45 4-1.65 3.16-0.24 4.89 0.34 8.25 2.75 2.34 1.68 4.87 4.3 5.63 5.81 0.76 1.51 1.7 4.55 2.08 6.75 0.49 2.8 0.2 5.2-0.96 8-0.91 2.2-3.54 6.18-5.83 8.85-2.3 2.67-6.41 5.93-9.17 7.28-3.15 1.54-7.06 2.52-10.58 2.66-4.56 0.17-6.29-0.27-9.5-2.4-2.15-1.43-5.42-4.13-7.26-6-1.84-1.86-4.49-5.64-5.88-8.39-1.63-3.19-2.59-6.81-2.66-10-0.07-2.75 0.46-7.03 1.17-9.5 0.71-2.48 2.96-6.71 5-9.41 2.38-3.16 5.86-6.1 9.71-8.22 3.42-1.87 8.8-3.77 12.5-4.4 4.44-0.76 8.24-0.81 12-0.14 3.02 0.54 7.08 1.61 9 2.39 1.92 0.78 5.48 3.19 7.9 5.35 2.41 2.16 5.39 5.5 6.62 7.43 1.22 1.92 2.96 5.97 3.86 9 0.9 3.02 1.64 8.2 1.63 11.5 0 3.3-0.7 8.7-1.56 12-0.85 3.3-2.74 8.02-4.2 10.5-1.45 2.47-4.8 6.64-7.44 9.25-2.65 2.61-7.85 6.21-11.56 8-6.3 3.03-7.46 3.25-17.25 3.25-7.87 0-11.25-0.41-13.5-1.65-1.65-0.9-3.9-1.8-5-2-1.1-0.19-2.45-0.69-3-1.1-0.55-0.41-4.71-3.67-9.25-7.25-4.54-3.57-8.7-6.5-9.25-6.5-0.55 0-2.52-1.91-4.38-4.25-1.86-2.34-4.33-6.16-5.5-8.5-1.17-2.34-2.12-5.15-2.12-6.25 0-1.1-0.5-2.11-1.11-2.25-0.61-0.14-1.34-2.73-1.61-5.75-0.38-4.18 0.12-7.47 2.11-13.75 1.44-4.54 3.06-8.25 3.61-8.25 0.55 0 2.43-2.36 4.17-5.25 1.74-2.89 4.56-6.52 6.25-8.08 1.69-1.56 5.56-4.76 8.58-7.11 3.02-2.35 6.85-5 8.5-5.88 1.65-0.89 3.23-1.43 3.5-1.2 0.27 0.23 2.3-0.21 4.5-0.99 2.2-0.77 5.24-1.42 6.75-1.45zm-76.12 7.22c3.51 0.52 6.82 1.28 7.37 1.71 0.55 0.42 3.25 1.45 6 2.29 2.75 0.83 7.48 2.04 10.5 2.67 3.13 0.66 6.69 2.21 8.25 3.61 2.3 2.06 2.65 2.99 2.11 5.71-0.35 1.79-1.36 3.8-2.25 4.47-0.88 0.67-2.28 1.22-3.11 1.22-0.83 0.01-3.3-0.85-5.5-1.91-2.2-1.05-7.83-3.65-12.5-5.78-5.28-2.4-10.24-5.55-13.08-8.31-2.52-2.44-4.49-4.93-4.37-5.52 0.15-0.77 2.12-0.81 6.58-0.16zm165.1 4.35c0.54 0.28 0.93 0.93 0.87 1.45-0.05 0.52-5.84 4.11-12.85 7.97-9.27 5.12-13.57 6.96-15.75 6.75-1.85-0.17-3-0.85-3-1.76 0-0.81 2.03-2.61 4.5-3.98 2.47-1.38 9.17-4.4 14.88-6.72 5.71-2.32 10.82-3.98 11.35-3.71zm-28.16 32.1c1.34 0.32 2.88 0.95 3.43 1.4 0.55 0.45 6.85 1.3 14 1.9 7.15 0.6 14.91 1.52 17.25 2.04 2.34 0.52 5.39 1.51 6.78 2.2 1.39 0.69 2.36 1.7 2.14 2.25-0.21 0.55-1.24 0.9-2.28 0.77-1.04-0.12-7.06-0.53-13.39-0.9-7.7-0.45-13.65-0.26-18 0.57-5.66 1.08-7.02 1.03-10.5-0.42-2.2-0.91-4.56-2.07-5.25-2.59-0.69-0.51-1.03-1.61-0.75-2.43 0.28-0.83 1.17-1.5 2-1.5 0.83 0 1.65-0.87 1.82-1.94 0.26-1.49 0.88-1.8 2.75-1.35zm-54.99 5.45c0.42 2.39 0.9 5.01 1.09 5.84 0.18 0.82-0.11 1.72-0.64 2-0.53 0.27-1.54-0.63-2.24-2-0.69-1.38-1.36-3.65-1.48-5.05-0.11-1.4 0.4-3.13 1.16-3.84 1.13-1.07 1.49-0.56 2.11 3.05zm-69.83-2.08c8.25-0.05 13.95 0.32 14.25 0.92 0.27 0.55-0.4 2.57-3.5 8h-16.5c-10.4 0-17.97-0.46-20.49-1.25-2.2-0.69-4.23-1.93-4.53-2.75-0.29-0.83 0.04-1.82 0.74-2.2 0.71-0.39 4.2-0.99 7.78-1.33 3.58-0.34 6.95-0.78 7.5-0.97 0.55-0.19 7.19-0.38 14.75-0.42zm119.65 20.92c1.15 0 3.56 0.75 5.35 1.67 1.79 0.91 7.08 4.75 11.75 8.52 4.67 3.77 8.84 6.84 9.25 6.83 0.41-0.01 0.97 0.65 1.25 1.48 0.38 1.14-0.1 1.38-2 1-1.37-0.28-6.44-2.2-11.25-4.27-4.81-2.07-10.89-5-13.5-6.5q-4.75-2.73-4.75-4.73c0-1.11 0.67-2 1.5-2 0.83 0 1.23-0.45 0.9-1-0.33-0.55 0.34-1 1.5-1zm-13.81 20.04c1.05 0.53 3.12 2.87 4.59 5.21 1.48 2.34 5.64 7.65 9.25 11.81 3.67 4.23 7.11 9.3 7.79 11.5 0.67 2.17 0.9 4.29 0.5 4.72-0.4 0.42-5.44-3.96-11.22-9.74-5.78-5.78-11.28-12.2-12.22-14.27-0.95-2.08-1.81-4.93-1.92-6.35-0.11-1.42 0.15-2.87 0.57-3.22 0.41-0.35 1.61-0.2 2.66 0.34zm-58.48 8.96c0.77 0 2.52 1.12 3.89 2.5 2.07 2.07 2.29 2.77 1.25 4.04-0.7 0.86-0.81 1.54-0.25 1.54 0.55-0.01 0.07 0.76-1.06 1.7-1.13 0.95-3.63 4.19-5.57 7.22-1.93 3.02-4.94 7.19-6.69 9.25-1.75 2.06-3.63 3.52-4.18 3.25-0.55-0.28-0.72-1.74-0.37-3.25 0.35-1.51 2.65-7.48 5.13-13.25 2.47-5.78 4.94-11.06 5.48-11.75 0.54-0.69 1.61-1.25 2.37-1.25zm32.12 3.99c0.42 0 1.78 0.67 3.02 1.5 1.46 0.98 2.94 3.87 4.23 8.26 1.1 3.71 1.99 8.32 1.99 10.25 0 1.92-0.22 4.51-0.48 5.75-0.27 1.24-1.05 2.25-1.74 2.26-0.69 0-2.47-3.26-3.96-7.25-1.5-3.99-3.22-9.74-3.83-12.76-0.61-3.03-0.87-6.06-0.56-6.75 0.3-0.69 0.9-1.25 1.33-1.26z"/>
</svg>